PathFileType	4	(X/Y/Z)	C:\Users\WrightLab\Desktop\Jo\P5V25.trc
DataRate	CameraRate	NumFrames	NumMarkers	Units	OrigDataRate	OrigDataStartFrame	OrigNumFrames
100.00	100.00	       19	19	mm	100.00	198	       790
Frame#	Time	Headset_Front			Headset_Back			Headset_Left			Headset_Right			Left_Shoulder			Right_Shoulder			Sternum			C7			Left Elbow			Right Elbow			Left Wrist			Right Wrist			Left ASIS			Right ASIS			S2			Left Knee			Right Knee			Left Ankle			Right Ankle			
		X1	Y1	Z1	X2	Y2	Z2	X3	Y3	Z3	X4	Y4	Z4	X5	Y5	Z5	X6	Y6	Z6	X7	Y7	Z7	X8	Y8	Z8	X9	Y9	Z9	X10	Y10	Z10	X11	Y11	Z11	X12	Y12	Z12	X13	Y13	Z13	X14	Y14	Z14	X15	Y15	Z15	X16	Y16	Z16	X17	Y17	Z17	X18	Y18	Z18	X19	Y19	Z19	

198	1.970	-426.51422	1550.01025	-1025.06689										-288.86737	1714.30371	-1123.58777	-279.31818	1281.02234	-1114.98596										-608.87286	1158.49451	-1149.42468				-572.17865	1029.79297	-944.56653	-145.06880	894.88202	-1164.29810	-423.97504	911.52728	-1103.32947				-191.82005	459.28284	-1241.72839	-438.27539	496.07202	-1032.19165				-435.64236	81.72847	-1003.65094	
199	1.980	-427.86569	1549.10718	-1018.25360										-290.21661	1713.54651	-1116.68372	-281.25113	1279.98413	-1107.49536										-610.23492	1157.78406	-1142.82739				-573.06470	1028.42126	-937.58881	-146.84094	894.49255	-1155.88306	-424.92847	910.14081	-1096.28601				-191.12383	457.78229	-1237.12854	-439.63403	495.37857	-1027.36731				-435.95660	81.57236	-997.03247	
200	1.990	-429.18661	1548.42627	-1011.19324										-291.61374	1712.66687	-1109.27588	-283.10577	1279.17969	-1100.69373										-611.24664	1156.61157	-1136.43604				-575.18768	1027.69458	-930.44061	-148.05232	894.14484	-1150.42761	-426.02875	908.67566	-1089.85339				-190.23686	458.39923	-1230.36548	-440.47913	494.11319	-1021.86066				-436.82565	81.00138	-992.86902	
201	2.000	-430.60815	1547.49976	-1004.10669	35.42085	1303.91663	-858.86127							-293.06924	1711.57117	-1101.90198	-284.06088	1278.83459	-1094.83191										-612.07263	1155.39624	-1129.09497				-573.90277	1026.79663	-922.58655	-148.36307	892.54022	-1143.53857	-426.81772	907.91370	-1083.22864				-190.87692	457.43686	-1227.37073	-440.76904	493.27625	-1016.43005				-437.59830	79.80685	-989.84076	
202	2.010	-432.23694	1546.10291	-997.20093	34.87495	1302.86377	-850.27881							-294.68845	1710.65759	-1095.40039	-286.12067	1276.73657	-1087.44873										-613.77484	1154.58447	-1122.18884				-578.14850	1025.72693	-916.86407	-150.26605	891.91058	-1138.89014	-427.70544	906.93188	-1076.13318				-192.02882	455.69550	-1224.04907	-440.79858	491.48672	-1010.47986				-437.40622	77.64416	-990.41779	
203	2.020	-433.69998	1545.02222	-989.45343	34.89899	1302.09802	-842.21381							-296.11151	1709.85596	-1087.47839	-287.28012	1276.27942	-1078.68811										-615.10474	1153.47498	-1115.21106				-576.91083	1024.64697	-908.01373	-152.22446	891.36804	-1131.56946	-429.75580	905.27155	-1069.69861				-192.94287	455.16779	-1219.66199	-441.63116	491.45486	-1004.45068				-437.01788	76.11325	-991.94525	
204	2.030	-435.16867	1543.99597	-981.69580	32.21581	1300.46912	-833.28094							-297.68170	1708.63452	-1079.28918	-288.59216	1275.03699	-1071.79871										-616.38788	1152.13330	-1107.07178				-581.55060	1024.17371	-901.56525	-153.31604	890.76062	-1124.49438	-430.62015	905.20154	-1063.32068				-193.95657	454.92609	-1215.11902	-441.66272	490.02454	-998.07959				-435.49237	73.43330	-995.79144	
205	2.040	-436.83481	1542.80457	-973.86499	31.01484	1300.35510	-824.35388							-299.15140	1707.89929	-1071.36621	-289.15381	1275.10046	-1063.97656										-618.43994	1150.90405	-1099.09705				-582.13867	1023.51483	-894.00073	-154.33151	888.64862	-1118.29565	-432.02765	903.57367	-1056.07227				-197.27396	453.01620	-1212.44678	-441.97546	489.01904	-992.55811				-433.63480	75.20104	-992.06610	
206	2.050	-438.36880	1541.76123	-965.82806	30.93669	1297.84314	-815.71869							-300.91125	1706.68970	-1063.20862	-290.85947	1273.67554	-1057.02039										-619.81921	1149.92932	-1091.94397				-585.08350	1023.63165	-887.20526	-155.77779	888.56158	-1110.38477	-434.30151	903.23413	-1047.32617				-199.24953	453.46350	-1207.72974	-442.59509	489.61942	-986.81848				-432.37384	75.07677	-988.34106	
207	2.060	-439.90323	1540.79187	-957.59912	27.22967	1298.75574	-806.25659							-302.56854	1706.08325	-1054.96973	-292.39511	1274.06628	-1049.25549	-183.41266	1516.67847	-735.13037	-342.83487	1487.02576	-1240.79639				-621.58942	1149.78601	-1084.65759				-585.71411	1021.69250	-878.17737	-157.83331	887.86084	-1104.20886	-434.81906	902.14063	-1041.81433				-203.03517	451.32040	-1203.68774	-440.97125	488.78897	-980.99860	-229.49289	64.23823	-1433.57629	-432.15707	75.41271	-987.42981	
208	2.070	-441.41458	1540.10645	-949.68634										-304.15955	1705.72742	-1046.56531							-344.44699	1486.76807	-1232.39893				-622.91187	1148.51538	-1075.75281				-587.71558	1021.31708	-870.26208	-159.10268	887.01709	-1095.86084	-437.93597	901.77411	-1033.89075				-204.67578	452.73019	-1196.62427	-439.41565	489.63998	-974.09375				-432.56171	76.41591	-986.31476	
209	2.080	-442.92130	1539.50122	-941.44971										-305.81873	1705.28564	-1038.13257							-346.00333	1487.09692	-1224.18066				-624.44287	1148.65637	-1068.64856				-587.19464	1019.62225	-860.18622	-160.42116	886.81824	-1089.94861	-438.64224	901.34979	-1026.84607				-207.45557	452.56680	-1189.68213	-439.05139	491.25455	-968.05859				-432.61560	76.29007	-986.52979	
210	2.090	-444.28464	1539.14392	-933.19159										-307.38586	1704.88794	-1029.66992							-347.51712	1487.47571	-1216.52783				-625.46942	1147.34277	-1058.78284				-589.65210	1018.75763	-852.40363	-162.99855	886.84924	-1081.64111	-440.67239	901.22705	-1020.39764				-212.53680	452.09827	-1184.07837	-438.72452	493.53314	-961.65588				-433.16818	76.76881	-984.05334	
211	2.100	-445.78699	1538.57837	-925.11249										-308.84561	1704.45020	-1020.57867							-349.11679	1487.62781	-1208.64709				-627.07074	1148.13806	-1052.34705				-594.40503	1021.60217	-846.07239	-164.28056	886.76825	-1073.27820	-443.91464	902.71338	-1012.42670				-216.82104	451.06320	-1175.86169	-437.12747	494.19574	-955.20752				-433.32358	76.42982	-984.67926	
212	2.110	-447.18994	1538.07581	-917.01202										-310.31979	1704.12427	-1011.66107							-350.75208	1487.78137	-1200.62170				-628.46704	1148.29321	-1043.95117				-596.14374	1020.68817	-837.47791	-166.99120	886.52112	-1065.82312	-445.09036	902.58521	-1005.34088				-220.41264	451.95645	-1167.57739	-437.87546	495.15906	-950.55194				-433.49362	76.08244	-985.37061	
213	2.120	-448.49066	1537.61914	-908.71326	-156.76820	1424.83215	-348.20108							-311.76440	1704.29614	-1003.29156	-356.53687	1449.55298	-823.07666				-352.26993	1488.79944	-1193.07764				-629.62506	1148.63428	-1035.79773				-598.13123	1020.81927	-828.82916	-169.16129	887.60437	-1058.10376	-445.72800	902.39819	-998.17432	-325.97031	944.50562	-1299.88892	-223.60295	451.03363	-1159.05371	-438.04022	495.27710	-945.99872	-227.35046	78.04759	-1423.47864	-434.49197	75.16385	-984.55249	
214	2.130	-449.83203	1537.36267	-900.64166	-158.13043	1424.91394	-340.43567							-313.06711	1704.71362	-994.80743	-358.96451	1448.48730	-815.86713				-353.84085	1489.89429	-1185.20361				-630.85583	1148.29883	-1026.72131				-600.02820	1020.64905	-819.46759	-171.63846	888.18506	-1049.55652	-448.19382	902.37305	-990.47064	-327.31293	945.03729	-1292.40613	-222.42329	453.48743	-1147.75159	-439.13428	494.87268	-941.81842				-435.14145	74.26318	-984.47168	
215	2.140	-450.91245	1537.68384	-892.76318	-160.20053	1425.89539	-335.17831							-314.33109	1705.03186	-986.31104	-360.62033	1448.75305	-808.52515				-355.62399	1490.71008	-1177.69690				-632.48969	1149.00647	-1017.66748				-600.96912	1019.48340	-810.90637	-172.16147	888.61902	-1041.56018	-448.54514	903.48145	-984.17816	-328.16339	946.60938	-1285.34448	-222.01929	453.95184	-1136.48987	-440.70132	494.71976	-938.43365	-227.08836	85.38433	-1421.96729	-435.42340	73.71299	-985.62378	
216	2.150	-452.13007	1537.57874	-884.39850	-513.34094	1411.07141	-1005.04498							-315.61386	1705.76123	-978.11725							-357.20145	1492.08789	-1170.06348				-633.87451	1149.82935	-1008.74847				-603.23523	1020.42096	-802.15741	-173.82195	890.81354	-1033.22351	-449.51855	903.96228	-978.04785	-329.26276	947.73615	-1277.74597	-219.93770	455.14209	-1124.38928	-444.20798	493.57193	-935.44568				-435.62912	73.32841	-986.46887	
